<svg width="86" height="86" viewBox="0 0 86 86" fill="none" xmlns="http://www.w3.org/2000/svg">
<path d="M8.41667 0.25C6.25073 0.25 4.17351 1.11041 2.64196 2.64196C1.11041 4.17351 0.25 6.25073 0.25 8.41667V65.5833C0.25 67.7493 1.11041 69.8265 2.64196 71.358C4.17351 72.8896 6.25073 73.75 8.41667 73.75H45.5342C45.2892 72.4025 45.1667 71.055 45.1667 69.6667C45.1667 66.89 45.6567 64.1133 46.5958 61.5H8.41667L22.7083 43.125L32.9167 55.375L47.2083 37L56.3142 49.1275C60.275 46.555 64.93 45.1667 69.6667 45.1667C71.055 45.1667 72.4025 45.2892 73.75 45.5342V8.41667C73.75 3.88417 70.075 0.25 65.5833 0.25H8.41667ZM65.5833 53.3333V65.5833H53.3333V73.75H65.5833V86H73.75V73.75H86V65.5833H73.75V53.3333H65.5833Z" fill="white"/>
</svg>
