<svg width="30" height="36" viewBox="0 0 30 36" fill="none" xmlns="http://www.w3.org/2000/svg">
<path d="M30 7.83333C30 11.05 27.3833 13.6667 24.1667 13.6667C20.95 13.6667 18.3333 11.05 18.3333 7.83333C18.3333 4.61666 20.95 1.99999 24.1667 1.99999C27.3833 1.99999 30 4.61666 30 7.83333ZM26.6667 16.65C25.8333 16.8667 25 17 24.1667 17C19.1167 17 15 12.8833 15 7.83333C15 5.38333 15.9667 3.16666 17.5 1.51666C16.9167 0.799995 16.0167 0.333328 15 0.333328C13.1667 0.333328 11.6667 1.83333 11.6667 3.66666V4.14999C6.71667 5.61666 3.33333 10.1667 3.33333 15.3333V25.3333L0 28.6667V30.3333H30V28.6667L26.6667 25.3333V16.65ZM15 35.3333C16.85 35.3333 18.3333 33.85 18.3333 32H11.6667C11.6667 33.85 13.1667 35.3333 15 35.3333Z" fill="white"/>
</svg>
