<svg width="30" height="30" viewBox="0 0 30 30" fill="none" xmlns="http://www.w3.org/2000/svg">
<path d="M23.3333 13.3333C23.8333 13.3333 24.5 13.3333 25 13.5V5.5L12.5 0L0 5.5V13.6667C0 21.1667 5.33333 28.3333 12.5 30C13.5 29.8333 14.3333 29.5 15.1667 29.1667C14 27.5 13.3333 25.5 13.3333 23.3333C13.3333 17.8333 17.8333 13.3333 23.3333 13.3333ZM23.3333 16.6667C19.6667 16.6667 16.6667 19.6667 16.6667 23.3333C16.6667 27 19.6667 30 23.3333 30C27 30 30 27 30 23.3333C30 19.6667 27 16.6667 23.3333 16.6667ZM23.3333 19C24.3333 19 25.1667 19.8333 25.1667 20.8333C25.1667 21.8333 24.3333 22.6667 23.3333 22.6667C22.3333 22.6667 21.5 21.8333 21.5 20.8333C21.5 19.8333 22.3333 19 23.3333 19ZM23.3333 28C21.8333 28 20.5 27.1667 19.6667 26C19.8333 24.8333 22.1667 24.1667 23.3333 24.1667C24.5 24.1667 27 24.8333 27 26C26.1667 27.1667 24.8333 28 23.3333 28Z" fill="white"/>
</svg>
