<?xml version="1.0" standalone="no"?>
<!DOCTYPE svg PUBLIC "-//W3C//DTD SVG 20010904//EN"
 "http://www.w3.org/TR/2001/REC-SVG-20010904/DTD/svg10.dtd">
<svg version="1.0" xmlns="http://www.w3.org/2000/svg"
 width="894.000000pt" height="981.000000pt" viewBox="0 0 894.000000 981.000000"
 preserveAspectRatio="xMidYMid meet">
<g transform="translate(0.000000,981.000000) scale(0.100000,-0.100000)"
fill="#000000" stroke="none">
<path d="M2955 9791 c-56 -25 -102 -67 -125 -112 -14 -27 -74 -362 -210 -1172
-104 -623 -190 -1136 -190 -1140 0 -4 -330 -7 -732 -7 -790 -1 -769 0 -842
-55 -79 -60 -77 -53 -196 -767 -117 -701 -117 -692 -68 -753 44 -56 24 -55
828 -55 l742 0 -6 -27 c-3 -16 -65 -372 -136 -793 -71 -421 -133 -777 -136
-793 l-6 -27 -738 0 c-810 0 -772 3 -845 -62 -20 -17 -45 -48 -55 -69 -21 -41
-230 -1261 -230 -1342 0 -57 32 -105 90 -135 l44 -22 734 0 735 0 -6 -27 c-3
-16 -90 -534 -193 -1154 l-189 -1125 25 -49 c19 -35 37 -55 69 -72 l44 -23
656 0 656 0 51 24 c57 26 115 89 131 140 6 19 96 541 199 1160 l189 1126 818
0 817 0 -5 -22 c-3 -13 -89 -522 -191 -1133 -124 -743 -184 -1124 -181 -1154
6 -55 32 -90 87 -119 l44 -22 656 0 c615 0 657 2 695 19 46 21 108 79 130 121
11 21 395 2261 395 2303 0 4 332 7 738 7 720 0 738 1 782 21 56 25 96 62 122
113 22 43 228 1242 228 1329 0 67 -24 113 -75 142 l-42 25 -742 0 -743 0 6 27
c3 16 65 372 136 793 71 421 133 777 136 793 l6 27 734 0 c798 0 765 -2 841
56 73 56 73 56 188 741 58 348 105 652 105 676 0 57 -32 105 -90 135 l-44 22
-734 0 -734 0 5 28 c3 15 90 533 193 1153 l189 1125 -25 49 c-19 35 -37 55
-69 72 l-44 23 -656 0 -656 0 -51 -24 c-56 -26 -120 -93 -133 -141 -4 -17 -93
-538 -197 -1158 l-189 -1127 -818 0 -817 0 5 23 c3 12 89 522 191 1132 124
743 184 1124 181 1154 -6 55 -32 90 -87 119 l-44 22 -656 0 c-612 0 -658 -2
-695 -19z m2465 -4078 c0 -9 -61 -373 -135 -809 -74 -435 -135 -797 -135 -803
0 -8 -228 -11 -815 -11 -807 0 -815 0 -815 20 0 11 61 376 135 812 74 435 135
795 135 800 0 4 367 8 815 8 752 0 815 -1 815 -17z"/>
</g>
</svg>
